<svg xmlns="http://www.w3.org/2000/svg" viewBox="0 0 128 128" width="90" height="90">
  <path fill="#F0DB4F" d="M1.408 1.408h125.184v125.185H1.408z"/>
  <path d="M86.59 106.426c2.497 4.073 5.744 7.069 11.487 7.069 4.826 0 7.91-2.414 7.91-5.744 0-3.993-3.166-5.412-8.464-7.736l-2.904-1.247c-8.39-3.57-13.96-8.058-13.96-17.513 0-8.723 6.637-15.373 17.021-15.373 7.39 0 12.704 2.575 16.542 9.313l-9.06 5.817c-1.994-3.57-4.144-4.974-7.482-4.974-3.412 0-5.583 2.17-5.583 4.974 0 3.486 2.17 4.905 7.18 7.069l2.904 1.247c9.867 4.21 15.437 8.468 15.437 18.249 0 10.468-8.232 16.202-19.293 16.202-10.807 0-17.779-5.168-21.142-11.934zm-46.032.979c1.83 3.247 3.5 6 7.481 6 3.823 0 6.242-1.497 6.242-7.31V57.335h11.16v49.01c0 11.55-6.768 16.807-16.646 16.807-8.917 0-14.1-4.626-16.744-10.21z" fill="#323330"/>
</svg>
